<?xml version="1.0" encoding="utf-8"?>
<!-- Generator: Adobe Illustrator 28.0.0, SVG Export Plug-In . SVG Version: 6.00 Build 0)  -->
<svg version="1.1" id="SvgjsSvg1002" xmlns:svgjs="http://svgjs.com/svgjs"
	xmlns="http://www.w3.org/2000/svg" xmlns:xlink="http://www.w3.org/1999/xlink" x="0px" y="0px" viewBox="0 0 24 24" xml:space="preserve">
    <style>
        @media (prefers-color-scheme: dark) {
            .a { fill: #ffffff }
        }
    </style>
    <g class="a" fill="#000000" id="SvgjsG1001">
        <path id="SvgjsPath1000" class="st0" d="M17,19.7c0.6-0.6,0.6-1.7,0-2.3l-0.5-0.5c-0.6-0.6-1.7-0.6-2.3,0l-3.7,3.7
            c-0.6,0.6-0.6,1.7,0,2.3l0.5,0.5c0.6,0.6,1.7,0.6,2.3,0L17,19.7z M13.7,16.4c0.6-0.6,0.6-1.7,0-2.3l-0.5-0.5
            c-0.6-0.6-1.7-0.6-2.3,0l-3.7,3.7c-0.6,0.6-0.6,1.7,0,2.3l0.5,0.5c0.6,0.6,1.7,0.6,2.3,0L13.7,16.4z M17,6.7c0.6-0.6,0.6-1.7,0-2.3
            l-0.5-0.5c-0.6-0.6-1.7-0.6-2.3,0l-3.7,3.7c-0.6,0.6-0.6,1.7,0,2.3l0.5,0.5c0.6,0.6,1.7,0.6,2.3,0L17,6.7z M13.7,3.4
            c0.6-0.6,0.6-1.7,0-2.3l-0.5-0.5c-0.6-0.6-1.7-0.6-2.3,0L7.1,4.3C6.5,4.9,6.5,6,7.1,6.6l0.5,0.5c0.6,0.6,1.7,0.6,2.3,0L13.7,3.4z
            M19.8,7.1c-0.6-0.6-1.7-0.6-2.3,0L17,7.6c-0.6,0.6-0.6,1.7,0,2.3l3.7,3.7c0.6,0.6,1.7,0.6,2.3,0l0.5-0.5c0.6-0.6,0.6-1.7,0-2.3
            L19.8,7.1z M16.5,10.4c-0.6-0.6-1.7-0.6-2.3,0l-0.5,0.5c-0.6,0.6-0.6,1.7,0,2.3l3.7,3.7c0.6,0.6,1.7,0.6,2.3,0l0.5-0.5
            c0.6-0.6,0.6-1.7,0-2.3L16.5,10.4z M6.7,7.1C6,6.5,5,6.5,4.3,7.1L3.8,7.7c-0.6,0.6-0.6,1.7,0,2.3l3.7,3.7c0.6,0.6,1.7,0.6,2.3,0
            l0.5-0.5c0.6-0.6,0.6-1.7,0-2.3L6.7,7.1z M7,14.2c0.6,0.6,0.6,1.7,0,2.3L6.5,17c-0.6,0.6-1.7,0.6-2.3,0l-3.7-3.7
            c-0.6-0.6-0.6-1.7,0-2.3L1,10.5c0.6-0.6,1.7-0.6,2.3,0L7,14.2z"/>
    </g>
</svg>